<?xml version="1.0" encoding="UTF-8" standalone="no"?>
<!-- Created with Inkscape (http://www.inkscape.org/) -->

<svg xmlns:dc="http://purl.org/dc/elements/1.1/" xmlns:cc="http://creativecommons.org/ns#" xmlns:rdf="http://www.w3.org/1999/02/22-rdf-syntax-ns#" xmlns:svg="http://www.w3.org/2000/svg" xmlns="http://www.w3.org/2000/svg" xmlns:sodipodi="http://sodipodi.sourceforge.net/DTD/sodipodi-0.dtd" xmlns:inkscape="http://www.inkscape.org/namespaces/inkscape" id="svg2985" version="1.1" inkscape:version="0.48.5 r10040" width="1250" height="1247.8346" sodipodi:docname="Ruv-logo-1.gif">
  <metadata id="metadata2991">
    <rdf:RDF>
      <cc:Work rdf:about="">
        <dc:format>image/svg+xml</dc:format>
        <dc:type rdf:resource="http://purl.org/dc/dcmitype/StillImage" />
        <dc:title></dc:title>
      </cc:Work>
    </rdf:RDF>
  </metadata>
  <defs id="defs2989" />
  <sodipodi:namedview pagecolor="#ffffff" bordercolor="#666666" borderopacity="1" objecttolerance="10" gridtolerance="10" guidetolerance="10" inkscape:pageopacity="0" inkscape:pageshadow="2" inkscape:window-width="1366" inkscape:window-height="706" id="namedview2987" showgrid="false" fit-margin-top="0" fit-margin-left="0" fit-margin-right="0" fit-margin-bottom="0" inkscape:zoom="0.32456201" inkscape:cx="264.27151" inkscape:cy="580.04225" inkscape:window-x="-8" inkscape:window-y="-8" inkscape:window-maximized="1" inkscape:current-layer="svg2985" />
  <g id="g3009">
    <path id="path3005" d="M 616.875 717.5 C 566.52863 717.68674 556.54858 719.60362 519.40625 732.78125 C 418.23159 768.67679 339.58053 848.66455 308.53125 947.21875 C 293.9859 993.38739 292.68395 1101.6599 306.15625 1145.1562 L 314.8125 1173.125 L 364.1875 1196.3438 C 406.24474 1216.1263 473.14982 1237.6464 520 1246.4688 C 526.875 1247.7631 580.87503 1248.2077 640 1247.4688 C 739.08166 1246.2305 751.1721 1245.106 794.5625 1232.8125 C 820.4548 1225.4766 863.81035 1209.0265 890.90625 1196.2812 L 940.1875 1173.125 L 948.84375 1145.1562 C 955.33725 1124.1915 957.47725 1099.72 957.40625 1047.2188 C 957.32115 984.0863 955.9967 973.60633 944 940.53125 C 907.5202 839.95559 835.60352 768.26349 735.59375 732.78125 C 695.97526 718.72511 687.26508 717.5 627.5 717.5 C 623.76468 717.5 620.23142 717.48755 616.875 717.5 z M 622.8125 751.03125 C 718.47062 749.75022 812.75815 808.96432 844.96875 913.25 C 881.45055 1031.3644 813.81156 1158.1258 694.53125 1195.25 C 633.38893 1214.2797 558.80673 1204.2375 505.0625 1169.75 C 383.00335 1091.4248 364.30944 919.56156 466.75 817.34375 C 511.32078 772.86991 567.30717 751.77456 622.8125 751.03125 z " style="fill:#0c4ca1" />
    <path id="path3001" d="m 163.55198,1049.9796 c -30.20478,-32.6249 -70.21817,-88.33789 -70.21817,-97.76909 0,-11.28849 44.57598,-70.77067 83.82542,-111.85655 53.80953,-56.32728 107.11011,-95.16331 179.78913,-130.9985 33.06813,-16.30469 56.52907,-29.64484 52.13533,-29.64484 -12.9891,0 -103.04401,24.30389 -151.58329,40.90914 -60.53623,20.70934 -125.8115,49.75908 -178.66318,79.51117 -24.01479,13.51879 -44.66763,24.57964 -45.89518,24.57964 -8.2414,0 -32.85124,-129.921 -32.91204,-173.74993 l -0.03,-21.25 218.33326,0 c 120.0833,0 217.39577,-0.92715 216.24992,-2.0603 -1.14585,-1.1332 -29.08334,-5.72194 -62.08333,-10.19724 -113.9693,-15.456 -235.2824,-41.82138 -333.06897,-72.38702 L 6.36175,534.72948 10.9918,508.47009 c 5.24689,-29.75739 22.81974,-91.96563 29.59333,-104.76066 3.93665,-7.43624 9.34005,-5.02907 43.13019,19.21422 82.19121,58.96951 174.07863,104.07798 271.71844,133.38932 71.67207,21.51589 113.0738,28.82999 63.93412,11.2947 C 370.7323,550.25233 292.51328,508.54554 252.4999,478.63286 205.34842,443.38396 147.84179,384.24763 116.18595,338.45588 l -26.02024,-37.63961 19.8382,-29.30274 c 23.20229,-34.27105 73.52967,-91.80271 80.30741,-91.80271 2.579,0 4.6891,5.3733 4.6891,11.94066 0,19.77883 24.04899,96.44546 40.63514,129.54222 48.45998,96.69926 138.42584,179.27835 234.67665,215.40818 107.07606,40.19333 233.64121,36.88969 336.42692,-8.78155 123.3184,-54.79457 223.48057,-178.86546 248.73597,-308.10952 3.493,-17.875 7.8572,-34.30464 9.6982,-36.51033 4.4964,-5.38687 50.8489,45.89471 77.8099,86.0841 l 21.7425,32.41048 -8.9209,14.08948 c -4.9064,7.74922 -24.1079,33.19139 -42.67,56.53815 -62.3257,78.39132 -143.98577,139.3367 -245.63467,183.32443 -53.7767,23.27144 -33.6209,20.63989 49.3042,-6.43709 95.36257,-31.13819 205.45697,-88.93477 271.43597,-142.49649 l 20.7402,-16.83695 7.787,19.46148 c 8.883,22.20076 26.6917,90.82013 29.1117,112.17172 1.526,13.46314 -0.133,14.85824 -28.3792,23.86359 -62.1145,19.80314 -190.9403,49.50738 -266.58877,61.46917 -43.1261,6.8193 -90.7861,14.4587 -105.9111,16.9765 -19.0263,3.16724 39.1342,4.78024 188.74997,5.23474 l 216.2499,0.65685 -0.087,43.74999 c -0.081,40.60853 -5.8458,79.00746 -19.4441,129.50789 l -5.5301,20.537 -81.2195,-40.81114 c -80.0566,-40.22688 -167.09447,-72.92927 -247.05217,-92.82391 -22.4582,-5.5879 -43.7369,-10.15985 -47.286,-10.15985 -3.5491,0 20.6029,13.34015 53.6711,29.64484 72.6789,35.83519 125.97947,74.67122 179.78897,130.9985 46.2551,48.41933 84.268,101.64821 80.1866,112.28405 -5.7595,15.00905 -43.2831,66.54589 -68.6994,94.35549 l -26.3513,28.8325 -8.5171,-39.5914 C 1018.5773,846.19326 867.71083,707.85251 676.47748,685.04932 553.77458,670.41793 422.87443,714.51401 331.58072,801.23412 257.473,871.62925 216.97766,946.39756 198.37867,1047.1712 l -6.22085,33.7061 -28.60584,-30.8977 z" style="fill:#0c4ca1" />
    <path id="path2999" d="M 627.5 0 C 536.97981 0 446.46352 19.427895 363.71875 58.3125 L 314.9375 81.25 L 306.875 106.71875 C 294.67605 145.35086 292.1635 239.30793 302.1875 282.0625 C 331.15899 405.63236 435.6064 507.60866 558.1875 531.96875 C 737.12183 567.52769 911.90475 456.90205 952.78125 282.21875 C 962.82075 239.31545 960.3349 145.38566 948.125 106.71875 L 940.0625 81.25 L 891.28125 58.3125 C 808.53646 19.427895 718.02019 0 627.5 0 z M 626.6875 48.3125 C 728.18741 48.681487 821.4526 117.93113 847.25 217 C 880.2789 343.83979 800.0577 472.27418 671 499.1875 C 637.04192 506.26901 609.72219 505.63083 573.71875 496.90625 C 424.56656 460.76282 352.41123 283.43521 434.6875 155.21875 C 470.58008 99.285008 531.80738 59.28013 595 50.46875 C 605.61119 48.98916 616.18751 48.274329 626.6875 48.3125 z " style="fill:#0c4ca1" />
  </g>
</svg>
